:version 1.10
:name ASF
:units
  mass 1
  length 1
  angle deg
:documentation
  ASF file generated by Kaydara
:root
  axis xyz
  order  tx ty tz rx ry rz
  position 0 0 0
  orientation 0 0 0
:bonedata
  begin
    id 1
    name RightUpLegDummy
    direction -1 2.30186e-007 8.31532e-007
    length 4.46685
    axis 0 0 0 xyz
  end
  begin
    id 2
    name RightUpLeg
    direction -2.30187e-007 -1 1.24343e-010
    length 16.4045
    axis -3.49089 -0.000906625 0.000286804 xyz
    dof rx ry rz
  end
  begin
    id 3
    name RightLeg
    direction -2.30181e-007 -1 -4.17157e-009
    length 17.5097
    axis 3.68512 0.0193738 -0.131023 xyz
    dof rx ry rz
  end
  begin
    id 4
    name RightFoot
    direction 8.31421e-007 -4.51202e-011 1
    length 6.49508
    axis 4.81691e-005 -0.120479 -0.188788 xyz
    dof rx ry rz
  end
  begin
    id 5
    name RightToes
    direction 0.00124746 -0.014064 0.9999
    length 3.85082
    axis 0.000481921 0.542163 -0.142578 xyz
    dof rx ry rz
  end
  begin
    id 6
    name SpineDummy
    direction 0.0717043 0.9409 -0.331007
    length 10.0032
    axis 0 0 0 xyz
  end
  begin
    id 7
    name Spine
    direction 2.30186e-007 1 4.58806e-011
    length 9.84055
    axis -0.001389 0.000121418 2.40972e-006 xyz
    dof rx ry rz
  end
  begin
    id 8
    name Spine1
    direction 0 0 0
    length 0
    axis -0.001389 0.000121451 1.30017e-006 xyz
    dof rx ry rz
  end
  begin
    id 9
    name HEadDummy
    direction -0.00347485 0.950688 -0.310128
    length 8.00997
    axis -0.001389 0.000121451 1.30017e-006 xyz
  end
  begin
    id 10
    name HEad
    direction -0.0222688 0.980941 0.193023
    length 5.12695
    axis -0.001389 0.000121451 1.30017e-006 xyz
    dof rx ry rz
  end
  begin
    id 11
    name LeftShoulder1Dummy
    direction 0.988871 0.146793 -0.0242004
    length 3.5792
    axis -0.001389 0.000121451 1.30017e-006 xyz
  end
  begin
    id 12
    name LeftShoulder1
    direction 0.993832 0.108932 0.020779
    length 4.16823
    axis -0.001389 0.000121451 1.30017e-006 xyz
    dof rx ry rz
  end
  begin
    id 13
    name LeftArm
    direction 1 3.44807e-006 -8.31404e-007
    length 9.91437
    axis -23.1894 0.134784 0.967509 xyz
    dof rx ry rz
  end
  begin
    id 14
    name LeftForeArm
    direction 1 3.44842e-006 -8.31581e-007
    length 9.08575
    axis -9.91835 -0.06569 -0.177793 xyz
    dof rx ry rz
  end
  begin
    id 15
    name LeftHand
    direction 0.992938 -0.0411636 0.11126
    length 5.32135
    axis -0.00960232 -0.00340091 0.185173 xyz
    dof rx ry rz
  end
  begin
    id 16
    name RightShoulderDummy
    direction -0.988871 0.146793 -0.0241962
    length 3.5792
    axis -0.001389 0.000121451 1.30017e-006 xyz
  end
  begin
    id 17
    name RightShoulder
    direction -0.993832 0.108933 0.0207785
    length 4.16823
    axis 0.215806 0.000203643 -0.0068026 xyz
    dof rx ry rz
  end
  begin
    id 18
    name RightArm
    direction -1 3.90912e-006 8.31284e-007
    length 9.91437
    axis -23.2009 -0.134239 -0.964101 xyz
    dof rx ry rz
  end
  begin
    id 19
    name RightForeArm
    direction -1 3.90882e-006 8.31502e-007
    length 9.08575
    axis -9.92322 0.0658061 0.178867 xyz
    dof rx ry rz
  end
  begin
    id 20
    name RightHand
    direction -0.992843 -0.0414603 0.112003
    length 5.28593
    axis -0.00960638 0.00330671 -0.185228 xyz
    dof rx ry rz
  end
  begin
    id 21
    name LeftUpLegDummy
    direction 1 -2.30186e-007 -8.31532e-007
    length 4.46685
    axis 0 0 0 xyz
  end
  begin
    id 22
    name LeftUpLeg
    direction -2.30187e-007 -1 6.00931e-010
    length 16.4045
    axis -3.48766 0.00143442 -0.000524262 xyz
    dof rx ry rz
  end
  begin
    id 23
    name LeftLeg
    direction -2.30187e-007 -1 1.6669e-009
    length 17.5097
    axis 3.68178 -0.00654042 -0.000285133 xyz
    dof rx ry rz
  end
  begin
    id 24
    name LeftFoot
    direction 8.31532e-007 -4.54478e-011 1
    length 6.49508
    axis 1.87233e-006 4.66016e-005 -8.6538e-006 xyz
    dof rx ry rz
  end
  begin
    id 25
    name LeftToes
    direction 0.00818058 -0.00485161 0.999955
    length 3.85048
    axis 1.06247e-005 4.65869e-005 -8.65513e-006 xyz
    dof rx ry rz
  end
:hierarchy
  begin
    root RightUpLegDummy SpineDummy LeftUpLegDummy
    RightUpLegDummy RightUpLeg
    RightUpLeg RightLeg
    RightLeg RightFoot
    RightFoot RightToes
    SpineDummy Spine
    Spine Spine1
    Spine1 HEadDummy LeftShoulder1Dummy RightShoulderDummy
    HEadDummy HEad
    LeftShoulder1Dummy LeftShoulder1
    LeftShoulder1 LeftArm
    LeftArm LeftForeArm
    LeftForeArm LeftHand
    RightShoulderDummy RightShoulder
    RightShoulder RightArm
    RightArm RightForeArm
    RightForeArm RightHand
    LeftUpLegDummy LeftUpLeg
    LeftUpLeg LeftLeg
    LeftLeg LeftFoot
    LeftFoot LeftToes
  end

:SAMPLES-PER-SECOND 30
:FULLY-SPECIFIED
:DEGREES
80
root  -69.0456 27.8518 -4.8708 -135.025 85.1484 -156.457
RightUpLeg  -20.2496 -18.0039 16.6485
RightLeg  53.0339 -14.9796 -16.7873
RightFoot  -33.2746 3.74838 12.8764
RightToes  -22.2494 -0.09435 -0.194657
Spine  17.8054 5.12097 -7.74929
Spine1  32.1021 14.2725 -12.9433
HEad  6.86461 -6.60406 15.5288
LeftShoulder1  0 -2.42657e-020 -4.95415e-022
LeftArm  -51.37 -11.5114 -55.4448
LeftForeArm  -3.52454 -34.6966 -6.98484
LeftHand  1.57325 -4.45773 -39.2893
RightShoulder  0 2.42657e-020 1.07489e-018
RightArm  -25.0261 16.729 89.0713
RightForeArm  45.339 20.9282 3.84371
RightHand  -1.06247 23.7233 -4.68666
LeftUpLeg  -75.6606 -8.19717 9.04537
LeftLeg  53.696 -11.5941 -13.4841
LeftFoot  8.8709 0.167034 -2.15314
LeftToes  -39.2798 8.63562e-007 1.17448e-007
81
root  -68.0286 28.4474 -4.72504 -149.688 84.269 -171.562
RightUpLeg  -17.5967 -16.2392 14.5287
RightLeg  50.3683 -12.9595 -13.4119
RightFoot  -27.8162 2.12183 8.93157
RightToes  -27.4329 -0.126649 -0.233734
Spine  17.5249 4.56553 -7.65099
Spine1  31.7758 12.8535 -12.4068
HEad  7.77157 -6.58285 14.9863
LeftShoulder1  0 -2.42657e-020 -4.95415e-022
LeftArm  -48.873 -10.282 -53.8126
LeftForeArm  -5.15361 -38.9725 -8.17179
LeftHand  1.53491 -4.17374 -40.8005
RightShoulder  0 2.42657e-020 1.07489e-018
RightArm  -26.8672 15.4878 88.1814
RightForeArm  45.2884 21.0314 3.86469
RightHand  -0.904483 23.0329 -4.06812
LeftUpLeg  -72.9775 -8.94813 7.93393
LeftLeg  51.6559 -12.7095 -13.7263
LeftFoot  8.50795 0.168265 -2.26187
LeftToes  -41.1749 8.63562e-007 1.17448e-007
82
root  -67.1596 29.0675 -4.56038 -152.175 84.2348 -174.782
RightUpLeg  -16.4982 -15.8983 12.4562
RightLeg  49.1625 -8.76946 -8.84937
RightFoot  -22.0513 0.854742 4.76242
RightToes  -31.7713 -0.156307 -0.264087
Spine  16.9869 4.30163 -7.39878
Spine1  30.8311 12.0999 -12.0005
HEad  8.06471 -6.33401 14.9303
LeftShoulder1  0 -2.42657e-020 -4.95415e-022
LeftArm  -46.7418 -9.64091 -52.4663
LeftForeArm  -5.21137 -43.097 -9.4692
LeftHand  1.44052 -3.89605 -41.0072
RightShoulder  0 2.42657e-020 1.07489e-018
RightArm  -28.9813 14.5617 87.4632
RightForeArm  45.136 21.1055 3.87994
RightHand  -1.08541 23.1272 -4.93247
LeftUpLeg  -70.6419 -8.0573 7.01547
LeftLeg  49.8349 -14.0553 -14.196
LeftFoot  8.20162 0.175373 -2.44573
LeftToes  -40.1514 8.63562e-007 1.17448e-007
83
root  -66.3679 29.6695 -4.42876 -151.18 85.0104 -174.339
RightUpLeg  -16.2633 -16.7368 9.76106
RightLeg  48.929 -5.41652 -5.47897
RightFoot  -19.1152 0.384989 2.66384
RightToes  -37.5008 -0.198833 -0.300574
Spine  16.4409 4.20163 -7.10394
Spine1  29.714 11.798 -11.8052
HEad  8.19686 -6.14546 14.8675
LeftShoulder1  0 -2.42657e-020 -4.95415e-022
LeftArm  -45.4999 -9.87368 -51.6309
LeftForeArm  -5.30955 -46.7428 -10.776
LeftHand  1.38921 -3.73932 -41.1902
RightShoulder  0 2.42657e-020 1.07489e-018
RightArm  -29.747 13.556 86.5801
RightForeArm  41.6854 22.3269 4.13477
RightHand  -0.91036 22.0908 -4.29239
LeftUpLeg  -68.0994 -7.42652 6.91185
LeftLeg  47.5421 -14.6522 -13.6691
LeftFoot  8.44538 0.194926 -2.63961
LeftToes  -37.8551 8.63562e-007 1.17448e-007
84
root  -65.6293 30.2123 -4.3299 -146.847 86.4157 -170.307
RightUpLeg  -16.739 -18.0557 6.46435
RightLeg  49.0577 -4.75523 -4.84226
RightFoot  -19.3579 0.363121 2.50646
RightToes  -38.0577 -0.203157 -0.30389
Spine  15.9682 4.1454 -6.82685
Spine1  28.7034 11.5739 -11.5866
HEad  8.15353 -6.01028 14.7406
LeftShoulder1  0 -2.42657e-020 -4.95415e-022
LeftArm  -44.7517 -10.5465 -51.4243
LeftForeArm  -3.26397 -51.7243 -12.899
LeftHand  1.30576 -3.6297 -40.0017
RightShoulder  0 2.42657e-020 1.07489e-018
RightArm  -29.7743 12.991 85.6505
RightForeArm  38.5696 23.5931 4.4026
RightHand  -0.847093 21.7023 -4.04823
LeftUpLeg  -65.5494 -6.78573 7.02776
LeftLeg  45.5614 -14.6471 -12.7803
LeftFoot  8.17386 0.181738 -2.5431
LeftToes  -31.5641 8.63562e-007 1.17448e-007
85
root  -64.9807 30.6771 -4.19726 -127.841 87.7663 -151.419
RightUpLeg  -17.848 -19.0818 3.53671
RightLeg  48.7579 -6.2844 -6.3021
RightFoot  -19.0278 0.487156 3.28387
RightToes  -36.2738 -0.189422 -0.29312
Spine  15.5139 4.07158 -6.49649
Spine1  27.6998 11.2731 -11.1874
HEad  8.3839 -5.65831 14.5837
LeftShoulder1  0 -2.42657e-020 -4.95415e-022
LeftArm  -44.1002 -12.1551 -51.0948
LeftForeArm  -0.254886 -55.8977 -15.0973
LeftHand  1.267 -3.64257 -38.7867
RightShoulder  0 2.42657e-020 1.07489e-018
RightArm  -29.5507 12.6633 85.013
RightForeArm  35.7075 25.0596 4.71811
RightHand  -0.784276 21.6267 -3.7355
LeftUpLeg  -63.2643 -6.45092 7.8768
LeftLeg  43.8465 -13.7386 -11.3403
LeftFoot  7.60408 0.146429 -2.20315
LeftToes  -28.3568 8.63562e-007 1.17448e-007
86
root  -64.3888 31.0726 -4.04087 -71.6612 88.3774 -95.2912
RightUpLeg  -19.5825 -19.403 0.723858
RightLeg  47.957 -8.14488 -7.89927
RightFoot  -18.4195 0.602816 4.09432
RightToes  -34.3302 -0.174848 -0.280907
Spine  15.088 3.91179 -6.18994
Spine1  26.709 10.8131 -10.8188
HEad  8.65674 -4.75716 14.2826
LeftShoulder1  0 -2.42657e-020 -4.95415e-022
LeftArm  -43.3669 -14.3294 -50.6891
LeftForeArm  4.56482 -59.8061 -17.6687
LeftHand  1.17889 -3.55806 -37.0908
RightShoulder  0 2.42657e-020 1.07489e-018
RightArm  -29.333 12.6826 84.9433
RightForeArm  33.8765 26.3494 5.00113
RightHand  -0.841184 22.0051 -3.95563
LeftUpLeg  -61.023 -5.24562 8.27434
LeftLeg  42.4541 -13.2567 -10.442
LeftFoot  6.97879 0.118828 -1.94856
LeftToes  -28.187 8.63562e-007 1.17448e-007
87
root  -63.8949 31.3885 -3.86683 -30.493 87.4804 -54.175
RightUpLeg  -21.9743 -19.8159 -1.80149
RightLeg  46.6013 -8.52493 -7.87933
RightFoot  -18.2983 0.623536 4.24788
RightToes  -33.0896 -0.165765 -0.272856
Spine  14.7222 3.57768 -5.85996
Spine1  25.8404 9.9653 -10.3471
HEad  8.96881 -3.6614 13.874
LeftShoulder1  0 -2.42657e-020 -4.95415e-022
LeftArm  -42.7205 -17.3434 -50.6423
LeftForeArm  11.5675 -62.9683 -20.2821
LeftHand  1.17411 -3.75822 -35.1193
RightShoulder  0 2.42657e-020 1.07489e-018
RightArm  -28.6446 12.9164 85.2444
RightForeArm  32.3858 27.741 5.31331
RightHand  -0.842581 22.1008 -3.94359
LeftUpLeg  -59.099 -2.91848 7.75887
LeftLeg  41.5032 -13.878 -10.5528
LeftFoot  6.52243 0.109439 -1.92047
LeftToes  -28.2246 8.63562e-007 1.17448e-007
88
root  -63.4283 31.6085 -3.64826 -15.8835 85.9933 -39.2366
RightUpLeg  -24.3696 -19.4673 -4.09271
RightLeg  44.7013 -6.38666 -5.55588
RightFoot  -17.4518 0.429935 3.1783
RightToes  -35.7906 -0.18576 -0.29013
Spine  14.4999 3.29159 -5.48031
Spine1  25.3013 9.08446 -9.49141
HEad  9.35981 -2.80884 13.575
LeftShoulder1  0 -2.42657e-020 -4.95415e-022
LeftArm  -41.4405 -20.9949 -51.5208
LeftForeArm  19.6307 -65.5347 -22.9062
LeftHand  1.1353 -3.89034 -32.9519
RightShoulder  0 2.42657e-020 1.07489e-018
RightArm  -28.0048 12.9962 85.7872
RightForeArm  31.5128 29.4914 5.71711
RightHand  -0.908916 21.8247 -4.34312
LeftUpLeg  -57.2465 -0.80468 7.62724
LeftLeg  41.1684 -14.1414 -10.6182
LeftFoot  5.78488 0.0900453 -1.78204
LeftToes  -29.8039 8.63562e-007 1.17448e-007
89
root  -63.0123 31.7434 -3.40906 -8.70166 84.379 -31.4609
RightUpLeg  -26.7856 -18.2076 -6.40904
RightLeg  42.6437 -2.96646 -2.42336
RightFoot  -15.7967 0.185117 1.71191
RightToes  -41.0614 -0.227017 -0.321039
Spine  14.4891 2.99987 -5.03345
Spine1  25.1843 8.15984 -8.44851
HEad  9.74619 -1.82866 12.9067
LeftShoulder1  0 -2.42657e-020 -4.95415e-022
LeftArm  -38.8538 -24.6756 -53.5849
LeftForeArm  29.0797 -67.9411 -25.946
LeftHand  1.0833 -4.18249 -29.4473
RightShoulder  0 2.42657e-020 1.07489e-018
RightArm  -26.7804 13.3489 86.2738
RightForeArm  31.7879 31.1736 6.11825
RightHand  -1.07176 21.6081 -5.24338
LeftUpLeg  -55.5275 0.933902 7.69655
LeftLeg  41.3691 -14.1121 -10.6725
LeftFoot  4.85326 0.066635 -1.57231
LeftToes  -29.2211 8.63562e-007 1.17448e-007
90
root  -62.6789 31.7768 -3.13024 -5.5459 82.7762 -27.9254
RightUpLeg  -29.4865 -16.5907 -8.39066
RightLeg  40.5229 -0.458324 -0.366892
RightFoot  -15.1595 0.0617385 0.841544
RightToes  -44.2391 -0.253202 -0.337795
Spine  14.4364 2.64813 -4.45627
Spine1  24.985 7.18235 -7.4073
HEad  10.3646 -0.556373 11.8532
LeftShoulder1  0 -2.42657e-020 -4.95415e-022
LeftArm  -34.8201 -27.2692 -56.797
LeftForeArm  39.5763 -70.3189 -29.7432
LeftHand  0.948894 -4.37215 -24.8875
RightShoulder  0 2.42657e-020 1.07489e-018
RightArm  -25.7746 13.7955 87.0503
RightForeArm  32.5227 32.4218 6.42516
RightHand  -1.17312 22.2022 -5.6052
LeftUpLeg  -54.5426 2.12678 8.29103
LeftLeg  42.1994 -13.4173 -10.4696
LeftFoot  3.75064 0.0417338 -1.27457
LeftToes  -29.9581 8.63562e-007 1.17448e-007
91
root  -62.4074 31.7181 -2.77194 -4.14334 81.009 -26.0504
RightUpLeg  -32.1272 -14.3352 -10.2339
RightLeg  38.3117 -0.533883 -0.388367
RightFoot  -14.6863 0.0631065 0.867283
RightToes  -41.7877 -0.23292 -0.324997
Spine  14.522 2.37235 -3.84755
Spine1  25.0367 6.40084 -6.41794
HEad  10.6489 0.921124 10.4725
LeftShoulder1  0 -2.42657e-020 -4.95415e-022
LeftArm  -29.606 -28.9467 -60.9374
LeftForeArm  49.3392 -71.5347 -32.1107
LeftHand  0.739151 -4.77354 -17.9899
RightShoulder  0 2.42657e-020 1.07489e-018
RightArm  -24.5968 14.3271 87.9383
RightForeArm  33.0127 33.5114 6.70044
RightHand  -1.23675 23.096 -5.67898
LeftUpLeg  -53.9033 3.32692 9.26634
LeftLeg  43.7938 -12.5813 -10.4041
LeftFoot  2.52908 0.0218109 -0.988071
LeftToes  -31.322 8.63562e-007 1.17448e-007
92
root  -62.2055 31.5474 -2.34165 -3.6965 79.323 -25.2605
RightUpLeg  -34.8619 -11.3772 -12.0852
RightLeg  36.437 -1.03559 -0.682851
RightFoot  -12.5581 0.0676965 0.992845
RightToes  -44.414 -0.25467 -0.338675
Spine  14.6369 2.18127 -3.20617
Spine1  25.135 5.8723 -5.62048
HEad  10.6953 2.52498 8.89816
LeftShoulder1  0 -2.42657e-020 -4.95415e-022
LeftArm  -23.6609 -29.2043 -66.4815
LeftForeArm  55.5847 -70.3773 -29.8308
LeftHand  0.461428 -6.50068 -8.49059
RightShoulder  0 2.42657e-020 1.07489e-018
RightArm  -23.596 15.0647 88.9518
RightForeArm  33.2442 34.2343 6.88713
RightHand  -1.15491 23.3717 -5.21095
LeftUpLeg  -53.8477 4.62667 10.3984
LeftLeg  46.1159 -11.7325 -10.5374
LeftFoot  1.08963 0.00657918 -0.691886
LeftToes  -32.6194 8.63562e-007 1.17448e-007
